<svg height="1716" viewBox="0 0 1287 1287" width="1716" xmlns="http://www.w3.org/2000/svg"><path d="m701.8.5c-.1.1-6.1.6-13.3.9-7.1.4-13.9.9-15 1.1-1.1.3-5.1.7-9 1-8.7.7-15.1 1.4-19 1.9-1.6.3-6.8 1-11.5 1.6-4.7.5-9.8 1.2-11.5 1.5-3.7.6-9.3 1.6-12 2.1-1.1.2-3.6.5-5.5.8-4.6.6-17.5 3-33 6.2-6.9 1.5-13.4 2.8-14.5 3s-5.1 1-9 1.8c-3.8.9-8.1 1.8-9.5 2-2 .4-17.5 4.1-25.2 6-8 2-26.9 7.2-33.8 9.3-4.7 1.4-8.7 2.6-9 2.6-1.5 0-48 16.3-54.3 19.1-1.8.7-9.9 4.2-18.2 7.6-34.8 14.6-77.5 38.1-105.9 58.3-43.4 30.9-78.4 67.7-103 108.5-3.1 5.1-5.6 9.6-5.6 9.9 0 .4-.6 1.4-1.3 2.2-1.2 1.4-10.3 20.4-14 29.1-7 16.5-13.4 37-17.2 55-.9 4.1-1.8 8.4-2.1 9.5-1.4 6.3-4.2 26.3-5.1 36.5-1 10.9-1 44.5 0 53 .9 7.6 3.2 19.3 5.4 27 11.2 40.7 37.9 73.2 74.8 91 38.1 18.3 83.7 35.5 150 56.5 13.2 4.2 30.3 9.7 38 12.2s17.5 5.6 21.7 6.9c12.7 3.9 22.5 7 36.3 11.4 26.2 8.4 109.8 34.6 126.5 39.7 6.3 1.9 12.4 3.8 13.5 4.2 1.1.5 5.8 2 10.5 3.4 17.3 5.4 27.8 8.6 38.5 12 6.1 1.9 18.4 5.8 27.5 8.7 9.1 2.8 18.8 6 21.5 7 2.8 1 8.2 3 12 4.4 9.9 3.4 24.5 9.2 31.3 12.2 8.9 4 38.2 18.6 43.2 21.5 30.5 17.9 38.6 22.7 40.8 24.1 1.5 1 3.8 2.4 5.2 3.2 2.5 1.4 24.7 16.5 30 20.3 7.4 5.4 22.6 16.8 23 17.3.3.3 5.2 4.3 11 8.9 21.6 17.4 40.4 35.2 54.1 51.1 19.4 22.6 34.1 47.9 38.5 66.5 2 8.5 2.2 23.6.4 29-6.6 20.1-24.4 38.7-55 57.1-27.5 16.6-72.3 34.9-112.5 45.9-3.3.9-7.9 2.3-10.2 3.1-2.4.7-5.7 1.6-7.5 1.9-1.7.3-3.5.8-3.9 1.1-.4.2-2.7.8-5.1 1.3s-7.2 1.7-10.8 2.6-7.6 1.9-9 2.1c-1.4.3-4.1.9-6 1.4-4 1-36.3 7.7-41.2 8.5-1.8.3-4.4.7-5.8 1s-4.1.7-6 1-4.6.7-6 1c-5.7 1.1-39.7 6.2-46 6.9-2.5.3-7 .9-10 1.3-10.6 1.3-32.4.8-48-1.2-6.3-.8-18.7-4.3-23.2-6.5-15-7.6-16.9-19.5-5.3-33.5 3.2-3.9 18.3-16.5 28-23.3 51.2-36.3 99.4-73 109.3-83 16.4-16.7 26.8-32.2 33.7-50 14.9-38.6 4.2-67.8-29.4-80.7-7.8-2.9-8.6-3.2-20.1-5-8.2-1.4-30.5-1.4-37.5 0-14.7 2.7-25.8 5.9-31.5 9-1.4.7-2.8 1.4-3.3 1.4-.4 0-3.5 1.5-7 3.2-9.9 5-26 15.8-37.2 25-6.1 5-24.2 20.5-25.6 21.8-.9.9-4.9 4.5-9 8.1-17.2 15.1-37.5 36.7-49.3 52.5-3.7 4.9-7.3 9.7-7.9 10.5-.7.8-4.4 6.4-8.3 12.5-19.3 29.7-32.7 59.2-43.3 94.9-1.8 6.1-3.4 11.7-3.6 12.5-.2.9-1 4.3-1.9 7.6-.8 3.3-1.8 7.6-2.1 9.5s-.8 4.2-1 5c-.5 1.9-1.2 6-2.1 12.5-.3 2.7-.8 5.3-.9 5.6-.7 1-1.9 23.3-1.9 32.9.2 62.6 27.1 104.2 77.9 120.4 8.7 2.7 8.6 2.7 25.5 5.6 11.3 1.9 19.5 2.9 29.5 3.6 6.9.5 41.9.5 48 0 2.8-.2 9.4-.7 14.7-1.1 5.4-.3 11-.8 12.5-1 1.6-.2 6.2-.6 10.3-1 11.8-1.2 22.3-2.3 27-3 1.4-.2 4.5-.6 7-1 7.7-1 19.4-2.6 22.5-3 1.7-.3 5-.7 7.5-1s6.8-1 9.5-1.5c2.8-.5 6.8-1.1 9-1.4 25.9-3.6 74.1-15 103-24.4 4.4-1.4 8.5-2.7 9-2.8 2.1-.4 27.5-10.3 38.5-14.9 14.6-6.2 40.4-19.3 54.3-27.6 5.9-3.5 11.6-6.9 12.5-7.4 5.8-3.4 34-23.3 41.3-29.2 17.5-14.2 42.6-37.9 53.4-50.4 11.4-13.2 25.5-31.3 25.5-32.7 0-.6.4-1.2.8-1.4.5-.1 3.1-3.7 5.9-7.8 13.6-20.4 27.5-47.5 37-72 6.4-16.7 15-45.8 16.7-56.4.4-2.1.8-4.8 1.1-6 1.9-8.7 2.9-21.1 2.9-37.1 0-15.3-.7-23.4-2.9-34.5-.3-1.4-.7-3.4-.9-4.5-3.3-17.4-14.6-43.7-26.6-61.9-6.1-9.3-30.4-42.1-33.3-45-.7-.7-2.5-3-4.2-5.1-8.3-10.5-18.3-22-34.5-39.9-7.3-8-34-34.8-41.1-41.1-13.2-11.8-21.3-18.4-37.9-30.6-15-11.1-25.1-18.1-36.2-25.4-2.9-1.9-6-3.9-6.8-4.5-6.9-4.7-34.3-21.1-50-29.9-9.1-5.1-44.9-23-54.5-27.3-4.9-2.2-11.2-5-14-6.3-12.6-5.9-20.6-9.5-21-9.5-.3 0-3.9-1.6-8-3.5-6.7-3.1-11.9-5.5-13.5-6-.3-.1-2.7-1.2-5.5-2.4-7.7-3.5-47.2-20-54.5-22.8-3.6-1.3-7.8-3.1-9.5-3.8-25.6-11.4-139.2-51-221-77-11.5-3.6-21.9-7-23-7.5s-12.3-4.3-25-8.4c-56.3-18.4-74.2-25.8-93-38.1-3.7-2.5-7-4.5-7.2-4.5-1.1 0-7.8-8-8.9-10.6-2.4-5.6.2-11.5 7.3-16.7 9.8-7.1 68.3-40.1 93.3-52.6 23-11.4 36.8-17.3 70.5-29.9 14.5-5.4 57.1-18.3 65.5-19.8 1.4-.3 4.1-.9 6-1.5 1.9-.5 10-2.3 18-3.9 15.1-3 17.9-3.5 24.5-4.5 2.2-.4 5.3-.8 7-1.1 5.4-.9 17.9-2.5 24-3 3.3-.3 7.4-.7 9-1 12.4-1.7 57.8-2.4 76-1.1 10.6.8 11.9 1 26 3.3 37 6.2 70.7 22.7 94.9 46.7 4 4 11.7 9.5 20.6 14.9 20.1 12.2 41.8 14 59.4 5.1 21.5-10.8 40.1-35.4 52.6-69.3 5.9-16.1 7.9-23.7 11.4-43 2.7-14.6 3.8-39.2 2.2-49.1-.3-1.9-.8-5.2-1.2-7.4-1.8-12-7.4-26.5-14.2-37.5-4.3-7-17.8-21.6-24.7-26.9-11.1-8.4-33-19.1-49.5-24-10.3-3.1-34.1-9-38.2-9.5-1.3-.2-6.1-1-10.8-1.9-7.8-1.4-17-2.8-27.5-4.1-4.4-.6-12.7-1.4-22.5-2.2-3.6-.3-8.3-.7-10.5-1-4.8-.5-71.2-1.4-71.7-.9z"/></svg>